<svg xmlns="http://www.w3.org/2000/svg" xmlns:xlink="http://www.w3.org/1999/xlink" width="500" zoomAndPan="magnify" viewBox="0 0 375 374.999991" height="500" preserveAspectRatio="xMidYMid meet" version="1.0"><defs><g/><clipPath id="cf4ccf35f9"><path d="M 128.921875 89.5625 L 245.921875 89.5625 L 245.921875 206.5625 L 128.921875 206.5625 Z M 128.921875 89.5625 " clip-rule="nonzero"/></clipPath><clipPath id="bb63995831"><path d="M 160.441406 89.5625 L 214.558594 89.5625 C 215.589844 89.5625 216.621094 89.613281 217.648438 89.714844 C 218.675781 89.816406 219.695312 89.96875 220.707031 90.167969 C 221.71875 90.371094 222.71875 90.621094 223.707031 90.917969 C 224.695312 91.21875 225.667969 91.566406 226.621094 91.960938 C 227.574219 92.355469 228.503906 92.796875 229.417969 93.285156 C 230.328125 93.769531 231.210938 94.300781 232.070312 94.875 C 232.925781 95.449219 233.753906 96.0625 234.554688 96.714844 C 235.351562 97.371094 236.113281 98.0625 236.84375 98.792969 C 237.574219 99.523438 238.265625 100.289062 238.921875 101.085938 C 239.578125 101.882812 240.191406 102.710938 240.765625 103.570312 C 241.339844 104.429688 241.867188 105.3125 242.355469 106.222656 C 242.839844 107.132812 243.28125 108.066406 243.675781 109.019531 C 244.070312 109.972656 244.417969 110.941406 244.71875 111.929688 C 245.019531 112.917969 245.269531 113.917969 245.46875 114.929688 C 245.671875 115.945312 245.824219 116.964844 245.925781 117.992188 C 246.027344 119.019531 246.074219 120.046875 246.074219 121.078125 L 246.074219 175.199219 C 246.074219 176.230469 246.027344 177.261719 245.925781 178.289062 C 245.824219 179.316406 245.671875 180.335938 245.46875 181.347656 C 245.269531 182.359375 245.019531 183.359375 244.71875 184.347656 C 244.417969 185.335938 244.070312 186.304688 243.675781 187.257812 C 243.28125 188.210938 242.839844 189.144531 242.355469 190.054688 C 241.867188 190.964844 241.339844 191.851562 240.765625 192.707031 C 240.191406 193.566406 239.578125 194.394531 238.921875 195.191406 C 238.265625 195.988281 237.574219 196.753906 236.84375 197.484375 C 236.113281 198.214844 235.351562 198.90625 234.554688 199.5625 C 233.753906 200.214844 232.925781 200.828125 232.070312 201.402344 C 231.210938 201.976562 230.328125 202.507812 229.417969 202.992188 C 228.503906 203.480469 227.574219 203.921875 226.621094 204.316406 C 225.667969 204.710938 224.695312 205.058594 223.707031 205.359375 C 222.71875 205.65625 221.71875 205.90625 220.707031 206.109375 C 219.695312 206.3125 218.675781 206.460938 217.648438 206.5625 C 216.621094 206.664062 215.589844 206.714844 214.558594 206.714844 L 160.441406 206.714844 C 159.410156 206.714844 158.378906 206.664062 157.351562 206.5625 C 156.324219 206.460938 155.304688 206.3125 154.292969 206.109375 C 153.28125 205.90625 152.28125 205.65625 151.292969 205.359375 C 150.304688 205.058594 149.332031 204.710938 148.378906 204.316406 C 147.425781 203.921875 146.492188 203.480469 145.582031 202.992188 C 144.671875 202.507812 143.789062 201.976562 142.929688 201.402344 C 142.074219 200.828125 141.246094 200.214844 140.445312 199.5625 C 139.648438 198.90625 138.882812 198.214844 138.15625 197.484375 C 137.425781 196.753906 136.734375 195.988281 136.078125 195.191406 C 135.421875 194.394531 134.808594 193.566406 134.234375 192.707031 C 133.660156 191.851562 133.132812 190.964844 132.644531 190.054688 C 132.160156 189.144531 131.71875 188.210938 131.324219 187.257812 C 130.929688 186.304688 130.582031 185.335938 130.28125 184.347656 C 129.980469 183.359375 129.730469 182.359375 129.53125 181.347656 C 129.328125 180.335938 129.175781 179.316406 129.074219 178.289062 C 128.972656 177.261719 128.921875 176.230469 128.921875 175.199219 L 128.921875 121.078125 C 128.921875 120.046875 128.972656 119.019531 129.074219 117.992188 C 129.175781 116.964844 129.328125 115.945312 129.53125 114.929688 C 129.730469 113.917969 129.980469 112.917969 130.28125 111.929688 C 130.582031 110.941406 130.929688 109.972656 131.324219 109.019531 C 131.71875 108.066406 132.160156 107.132812 132.644531 106.222656 C 133.132812 105.3125 133.660156 104.429688 134.234375 103.570312 C 134.808594 102.710938 135.421875 101.882812 136.078125 101.085938 C 136.734375 100.289062 137.425781 99.523438 138.15625 98.792969 C 138.882812 98.0625 139.648438 97.371094 140.445312 96.714844 C 141.246094 96.0625 142.074219 95.449219 142.929688 94.875 C 143.789062 94.300781 144.671875 93.769531 145.582031 93.285156 C 146.492188 92.796875 147.425781 92.355469 148.378906 91.960938 C 149.332031 91.566406 150.304688 91.21875 151.292969 90.917969 C 152.28125 90.621094 153.28125 90.371094 154.292969 90.167969 C 155.304688 89.96875 156.324219 89.816406 157.351562 89.714844 C 158.378906 89.613281 159.410156 89.5625 160.441406 89.5625 Z M 160.441406 89.5625 " clip-rule="nonzero"/></clipPath><linearGradient x1="21.457464" gradientTransform="matrix(0, -0.496408, 0.496408, 0, 128.923722, 206.715055)" y1="-15.316494" x2="214.503144" gradientUnits="userSpaceOnUse" y2="251.260396" id="89164f5349"><stop stop-opacity="1" stop-color="rgb(94.458008%, 95.730591%, 90.200806%)" offset="0"/><stop stop-opacity="1" stop-color="rgb(94.326782%, 95.681763%, 89.797974%)" offset="0.00390625"/><stop stop-opacity="1" stop-color="rgb(94.195557%, 95.632935%, 89.395142%)" offset="0.0078125"/><stop stop-opacity="1" stop-color="rgb(94.064331%, 95.582581%, 88.990784%)" offset="0.0117187"/><stop stop-opacity="1" stop-color="rgb(93.934631%, 95.533752%, 88.587952%)" offset="0.015625"/><stop stop-opacity="1" stop-color="rgb(93.803406%, 95.484924%, 88.18512%)" offset="0.0195312"/><stop stop-opacity="1" stop-color="rgb(93.673706%, 95.436096%, 87.782288%)" offset="0.0234375"/><stop stop-opacity="1" stop-color="rgb(93.54248%, 95.385742%, 87.37793%)" offset="0.0273438"/><stop stop-opacity="1" stop-color="rgb(93.412781%, 95.336914%, 86.975098%)" offset="0.03125"/><stop stop-opacity="1" stop-color="rgb(93.281555%, 95.288086%, 86.572266%)" offset="0.0351563"/><stop stop-opacity="1" stop-color="rgb(93.15033%, 95.239258%, 86.169434%)" offset="0.0390625"/><stop stop-opacity="1" stop-color="rgb(93.019104%, 95.188904%, 85.765076%)" offset="0.0429688"/><stop stop-opacity="1" stop-color="rgb(92.889404%, 95.140076%, 85.362244%)" offset="0.046875"/><stop stop-opacity="1" stop-color="rgb(92.758179%, 95.091248%, 84.959412%)" offset="0.0507812"/><stop stop-opacity="1" stop-color="rgb(92.628479%, 95.042419%, 84.55658%)" offset="0.0546875"/><stop stop-opacity="1" stop-color="rgb(92.497253%, 94.992065%, 84.152222%)" offset="0.0585938"/><stop stop-opacity="1" stop-color="rgb(92.366028%, 94.943237%, 83.74939%)" offset="0.0625"/><stop stop-opacity="1" stop-color="rgb(92.234802%, 94.894409%, 83.346558%)" offset="0.0664062"/><stop stop-opacity="1" stop-color="rgb(92.105103%, 94.845581%, 82.943726%)" offset="0.0703125"/><stop stop-opacity="1" stop-color="rgb(91.973877%, 94.795227%, 82.539368%)" offset="0.0742188"/><stop stop-opacity="1" stop-color="rgb(91.844177%, 94.746399%, 82.136536%)" offset="0.078125"/><stop stop-opacity="1" stop-color="rgb(91.712952%, 94.697571%, 81.733704%)" offset="0.0820312"/><stop stop-opacity="1" stop-color="rgb(91.581726%, 94.648743%, 81.330872%)" offset="0.0859375"/><stop stop-opacity="1" stop-color="rgb(91.4505%, 94.598389%, 80.926514%)" offset="0.0898438"/><stop stop-opacity="1" stop-color="rgb(91.320801%, 94.549561%, 80.523682%)" offset="0.09375"/><stop stop-opacity="1" stop-color="rgb(91.189575%, 94.500732%, 80.12085%)" offset="0.0976562"/><stop stop-opacity="1" stop-color="rgb(91.059875%, 94.451904%, 79.718018%)" offset="0.101562"/><stop stop-opacity="1" stop-color="rgb(90.92865%, 94.40155%, 79.31366%)" offset="0.105469"/><stop stop-opacity="1" stop-color="rgb(90.797424%, 94.352722%, 78.910828%)" offset="0.109375"/><stop stop-opacity="1" stop-color="rgb(90.666199%, 94.303894%, 78.507996%)" offset="0.113281"/><stop stop-opacity="1" stop-color="rgb(90.536499%, 94.255066%, 78.105164%)" offset="0.117188"/><stop stop-opacity="1" stop-color="rgb(90.405273%, 94.204712%, 77.700806%)" offset="0.121094"/><stop stop-opacity="1" stop-color="rgb(90.275574%, 94.155884%, 77.297974%)" offset="0.125"/><stop stop-opacity="1" stop-color="rgb(90.144348%, 94.107056%, 76.893616%)" offset="0.128906"/><stop stop-opacity="1" stop-color="rgb(90.013123%, 94.058228%, 76.490784%)" offset="0.132812"/><stop stop-opacity="1" stop-color="rgb(89.881897%, 94.007874%, 76.087952%)" offset="0.136719"/><stop stop-opacity="1" stop-color="rgb(89.752197%, 93.959045%, 75.68512%)" offset="0.140625"/><stop stop-opacity="1" stop-color="rgb(89.620972%, 93.910217%, 75.280762%)" offset="0.144531"/><stop stop-opacity="1" stop-color="rgb(89.491272%, 93.861389%, 74.87793%)" offset="0.148438"/><stop stop-opacity="1" stop-color="rgb(89.360046%, 93.811035%, 74.475098%)" offset="0.152344"/><stop stop-opacity="1" stop-color="rgb(89.228821%, 93.762207%, 74.072266%)" offset="0.15625"/><stop stop-opacity="1" stop-color="rgb(89.097595%, 93.713379%, 73.667908%)" offset="0.160156"/><stop stop-opacity="1" stop-color="rgb(88.967896%, 93.664551%, 73.265076%)" offset="0.164062"/><stop stop-opacity="1" stop-color="rgb(88.83667%, 93.614197%, 72.862244%)" offset="0.167969"/><stop stop-opacity="1" stop-color="rgb(88.70697%, 93.565369%, 72.459412%)" offset="0.171875"/><stop stop-opacity="1" stop-color="rgb(88.575745%, 93.516541%, 72.055054%)" offset="0.175781"/><stop stop-opacity="1" stop-color="rgb(88.444519%, 93.467712%, 71.652222%)" offset="0.179688"/><stop stop-opacity="1" stop-color="rgb(88.313293%, 93.418884%, 71.24939%)" offset="0.183594"/><stop stop-opacity="1" stop-color="rgb(88.183594%, 93.370056%, 70.846558%)" offset="0.1875"/><stop stop-opacity="1" stop-color="rgb(88.052368%, 93.319702%, 70.4422%)" offset="0.191406"/><stop stop-opacity="1" stop-color="rgb(87.922668%, 93.270874%, 70.039368%)" offset="0.195312"/><stop stop-opacity="1" stop-color="rgb(87.791443%, 93.222046%, 69.636536%)" offset="0.199219"/><stop stop-opacity="1" stop-color="rgb(87.660217%, 93.173218%, 69.233704%)" offset="0.203125"/><stop stop-opacity="1" stop-color="rgb(87.528992%, 93.122864%, 68.829346%)" offset="0.207031"/><stop stop-opacity="1" stop-color="rgb(87.399292%, 93.074036%, 68.426514%)" offset="0.210937"/><stop stop-opacity="1" stop-color="rgb(87.268066%, 93.025208%, 68.023682%)" offset="0.214844"/><stop stop-opacity="1" stop-color="rgb(87.138367%, 92.976379%, 67.62085%)" offset="0.21875"/><stop stop-opacity="1" stop-color="rgb(87.007141%, 92.926025%, 67.216492%)" offset="0.222656"/><stop stop-opacity="1" stop-color="rgb(86.875916%, 92.877197%, 66.81366%)" offset="0.226563"/><stop stop-opacity="1" stop-color="rgb(86.74469%, 92.828369%, 66.410828%)" offset="0.230469"/><stop stop-opacity="1" stop-color="rgb(86.61499%, 92.779541%, 66.007996%)" offset="0.234375"/><stop stop-opacity="1" stop-color="rgb(86.483765%, 92.729187%, 65.603638%)" offset="0.238281"/><stop stop-opacity="1" stop-color="rgb(86.354065%, 92.680359%, 65.200806%)" offset="0.242187"/><stop stop-opacity="1" stop-color="rgb(86.222839%, 92.631531%, 64.797974%)" offset="0.246094"/><stop stop-opacity="1" stop-color="rgb(86.091614%, 92.582703%, 64.395142%)" offset="0.25"/><stop stop-opacity="1" stop-color="rgb(85.960388%, 92.532349%, 63.990784%)" offset="0.253906"/><stop stop-opacity="1" stop-color="rgb(85.830688%, 92.483521%, 63.587952%)" offset="0.257812"/><stop stop-opacity="1" stop-color="rgb(85.699463%, 92.434692%, 63.18512%)" offset="0.261719"/><stop stop-opacity="1" stop-color="rgb(85.569763%, 92.385864%, 62.782288%)" offset="0.265625"/><stop stop-opacity="1" stop-color="rgb(85.438538%, 92.33551%, 62.37793%)" offset="0.269531"/><stop stop-opacity="1" stop-color="rgb(85.307312%, 92.286682%, 61.975098%)" offset="0.273438"/><stop stop-opacity="1" stop-color="rgb(85.176086%, 92.237854%, 61.57074%)" offset="0.277344"/><stop stop-opacity="1" stop-color="rgb(85.046387%, 92.189026%, 61.167908%)" offset="0.28125"/><stop stop-opacity="1" stop-color="rgb(84.915161%, 92.138672%, 60.765076%)" offset="0.285156"/><stop stop-opacity="1" stop-color="rgb(84.785461%, 92.089844%, 60.362244%)" offset="0.289062"/><stop stop-opacity="1" stop-color="rgb(84.654236%, 92.041016%, 59.957886%)" offset="0.292969"/><stop stop-opacity="1" stop-color="rgb(84.52301%, 91.992188%, 59.555054%)" offset="0.296875"/><stop stop-opacity="1" stop-color="rgb(84.391785%, 91.941833%, 59.152222%)" offset="0.300781"/><stop stop-opacity="1" stop-color="rgb(84.262085%, 91.893005%, 58.74939%)" offset="0.304688"/><stop stop-opacity="1" stop-color="rgb(84.130859%, 91.844177%, 58.345032%)" offset="0.308594"/><stop stop-opacity="1" stop-color="rgb(84.00116%, 91.795349%, 57.9422%)" offset="0.3125"/><stop stop-opacity="1" stop-color="rgb(83.869934%, 91.744995%, 57.539368%)" offset="0.316406"/><stop stop-opacity="1" stop-color="rgb(83.738708%, 91.696167%, 57.136536%)" offset="0.320312"/><stop stop-opacity="1" stop-color="rgb(83.607483%, 91.647339%, 56.732178%)" offset="0.324219"/><stop stop-opacity="1" stop-color="rgb(83.477783%, 91.598511%, 56.329346%)" offset="0.328125"/><stop stop-opacity="1" stop-color="rgb(83.346558%, 91.548157%, 55.926514%)" offset="0.332031"/><stop stop-opacity="1" stop-color="rgb(83.216858%, 91.499329%, 55.523682%)" offset="0.335938"/><stop stop-opacity="1" stop-color="rgb(83.085632%, 91.4505%, 55.119324%)" offset="0.339844"/><stop stop-opacity="1" stop-color="rgb(82.954407%, 91.401672%, 54.716492%)" offset="0.34375"/><stop stop-opacity="1" stop-color="rgb(82.823181%, 91.351318%, 54.31366%)" offset="0.347656"/><stop stop-opacity="1" stop-color="rgb(82.693481%, 91.30249%, 53.910828%)" offset="0.351562"/><stop stop-opacity="1" stop-color="rgb(82.562256%, 91.253662%, 53.50647%)" offset="0.355469"/><stop stop-opacity="1" stop-color="rgb(82.432556%, 91.204834%, 53.103638%)" offset="0.359375"/><stop stop-opacity="1" stop-color="rgb(82.301331%, 91.15448%, 52.700806%)" offset="0.363281"/><stop stop-opacity="1" stop-color="rgb(82.170105%, 91.105652%, 52.297974%)" offset="0.367188"/><stop stop-opacity="1" stop-color="rgb(82.038879%, 91.056824%, 51.893616%)" offset="0.371094"/><stop stop-opacity="1" stop-color="rgb(81.90918%, 91.007996%, 51.490784%)" offset="0.375"/><stop stop-opacity="1" stop-color="rgb(81.777954%, 90.957642%, 51.087952%)" offset="0.378906"/><stop stop-opacity="1" stop-color="rgb(81.648254%, 90.908813%, 50.68512%)" offset="0.382812"/><stop stop-opacity="1" stop-color="rgb(81.517029%, 90.859985%, 50.280762%)" offset="0.386719"/><stop stop-opacity="1" stop-color="rgb(81.385803%, 90.811157%, 49.87793%)" offset="0.390625"/><stop stop-opacity="1" stop-color="rgb(81.254578%, 90.760803%, 49.475098%)" offset="0.394531"/><stop stop-opacity="1" stop-color="rgb(81.124878%, 90.711975%, 49.072266%)" offset="0.398438"/><stop stop-opacity="1" stop-color="rgb(80.993652%, 90.663147%, 48.667908%)" offset="0.402344"/><stop stop-opacity="1" stop-color="rgb(80.863953%, 90.614319%, 48.265076%)" offset="0.40625"/><stop stop-opacity="1" stop-color="rgb(80.732727%, 90.563965%, 47.862244%)" offset="0.410156"/><stop stop-opacity="1" stop-color="rgb(80.601501%, 90.515137%, 47.459412%)" offset="0.414062"/><stop stop-opacity="1" stop-color="rgb(80.470276%, 90.466309%, 47.055054%)" offset="0.417969"/><stop stop-opacity="1" stop-color="rgb(80.340576%, 90.41748%, 46.652222%)" offset="0.421875"/><stop stop-opacity="1" stop-color="rgb(80.209351%, 90.367126%, 46.24939%)" offset="0.425781"/><stop stop-opacity="1" stop-color="rgb(80.079651%, 90.318298%, 45.846558%)" offset="0.429688"/><stop stop-opacity="1" stop-color="rgb(79.948425%, 90.26947%, 45.4422%)" offset="0.433594"/><stop stop-opacity="1" stop-color="rgb(79.8172%, 90.220642%, 45.039368%)" offset="0.4375"/><stop stop-opacity="1" stop-color="rgb(79.685974%, 90.171814%, 44.63501%)" offset="0.441406"/><stop stop-opacity="1" stop-color="rgb(79.556274%, 90.122986%, 44.232178%)" offset="0.445312"/><stop stop-opacity="1" stop-color="rgb(79.425049%, 90.072632%, 43.829346%)" offset="0.449219"/><stop stop-opacity="1" stop-color="rgb(79.295349%, 90.023804%, 43.426514%)" offset="0.453125"/><stop stop-opacity="1" stop-color="rgb(79.164124%, 89.974976%, 43.022156%)" offset="0.457031"/><stop stop-opacity="1" stop-color="rgb(79.032898%, 89.926147%, 42.619324%)" offset="0.460938"/><stop stop-opacity="1" stop-color="rgb(78.901672%, 89.875793%, 42.216492%)" offset="0.464844"/><stop stop-opacity="1" stop-color="rgb(78.771973%, 89.826965%, 41.81366%)" offset="0.46875"/><stop stop-opacity="1" stop-color="rgb(78.640747%, 89.778137%, 41.409302%)" offset="0.472656"/><stop stop-opacity="1" stop-color="rgb(78.511047%, 89.729309%, 41.00647%)" offset="0.476562"/><stop stop-opacity="1" stop-color="rgb(78.379822%, 89.678955%, 40.603638%)" offset="0.480469"/><stop stop-opacity="1" stop-color="rgb(78.248596%, 89.630127%, 40.200806%)" offset="0.484375"/><stop stop-opacity="1" stop-color="rgb(78.117371%, 89.581299%, 39.796448%)" offset="0.488281"/><stop stop-opacity="1" stop-color="rgb(77.987671%, 89.532471%, 39.393616%)" offset="0.492188"/><stop stop-opacity="1" stop-color="rgb(77.856445%, 89.482117%, 38.990784%)" offset="0.496094"/><stop stop-opacity="1" stop-color="rgb(77.726746%, 89.433289%, 38.587952%)" offset="0.5"/><stop stop-opacity="1" stop-color="rgb(77.59552%, 89.38446%, 38.183594%)" offset="0.503906"/><stop stop-opacity="1" stop-color="rgb(77.464294%, 89.335632%, 37.780762%)" offset="0.507812"/><stop stop-opacity="1" stop-color="rgb(77.333069%, 89.285278%, 37.37793%)" offset="0.511719"/><stop stop-opacity="1" stop-color="rgb(77.203369%, 89.23645%, 36.975098%)" offset="0.515625"/><stop stop-opacity="1" stop-color="rgb(77.072144%, 89.187622%, 36.57074%)" offset="0.519531"/><stop stop-opacity="1" stop-color="rgb(76.942444%, 89.138794%, 36.167908%)" offset="0.523438"/><stop stop-opacity="1" stop-color="rgb(76.811218%, 89.08844%, 35.765076%)" offset="0.527344"/><stop stop-opacity="1" stop-color="rgb(76.679993%, 89.039612%, 35.362244%)" offset="0.53125"/><stop stop-opacity="1" stop-color="rgb(76.548767%, 88.990784%, 34.957886%)" offset="0.535156"/><stop stop-opacity="1" stop-color="rgb(76.419067%, 88.941956%, 34.555054%)" offset="0.539063"/><stop stop-opacity="1" stop-color="rgb(76.287842%, 88.891602%, 34.152222%)" offset="0.542969"/><stop stop-opacity="1" stop-color="rgb(76.158142%, 88.842773%, 33.74939%)" offset="0.546875"/><stop stop-opacity="1" stop-color="rgb(76.026917%, 88.793945%, 33.345032%)" offset="0.550781"/><stop stop-opacity="1" stop-color="rgb(75.897217%, 88.745117%, 32.9422%)" offset="0.554688"/><stop stop-opacity="1" stop-color="rgb(75.765991%, 88.694763%, 32.539368%)" offset="0.558594"/><stop stop-opacity="1" stop-color="rgb(75.634766%, 88.645935%, 32.136536%)" offset="0.5625"/><stop stop-opacity="1" stop-color="rgb(75.50354%, 88.597107%, 31.732178%)" offset="0.566406"/><stop stop-opacity="1" stop-color="rgb(75.37384%, 88.548279%, 31.329346%)" offset="0.570312"/><stop stop-opacity="1" stop-color="rgb(75.242615%, 88.497925%, 30.926514%)" offset="0.574219"/><stop stop-opacity="1" stop-color="rgb(75.112915%, 88.449097%, 30.523682%)" offset="0.578125"/><stop stop-opacity="1" stop-color="rgb(74.981689%, 88.400269%, 30.119324%)" offset="0.582031"/><stop stop-opacity="1" stop-color="rgb(74.850464%, 88.35144%, 29.716492%)" offset="0.585938"/><stop stop-opacity="1" stop-color="rgb(74.719238%, 88.301086%, 29.312134%)" offset="0.589844"/><stop stop-opacity="1" stop-color="rgb(74.589539%, 88.252258%, 28.909302%)" offset="0.59375"/><stop stop-opacity="1" stop-color="rgb(74.458313%, 88.20343%, 28.50647%)" offset="0.597656"/><stop stop-opacity="1" stop-color="rgb(74.328613%, 88.154602%, 28.103638%)" offset="0.601562"/><stop stop-opacity="1" stop-color="rgb(74.197388%, 88.104248%, 27.69928%)" offset="0.605469"/><stop stop-opacity="1" stop-color="rgb(74.066162%, 88.05542%, 27.296448%)" offset="0.609375"/><stop stop-opacity="1" stop-color="rgb(73.934937%, 88.006592%, 26.893616%)" offset="0.613281"/><stop stop-opacity="1" stop-color="rgb(73.805237%, 87.957764%, 26.490784%)" offset="0.617188"/><stop stop-opacity="1" stop-color="rgb(73.674011%, 87.90741%, 26.086426%)" offset="0.621094"/><stop stop-opacity="1" stop-color="rgb(73.544312%, 87.858582%, 25.683594%)" offset="0.625"/><stop stop-opacity="1" stop-color="rgb(73.413086%, 87.809753%, 25.280762%)" offset="0.628906"/><stop stop-opacity="1" stop-color="rgb(73.28186%, 87.760925%, 24.87793%)" offset="0.632812"/><stop stop-opacity="1" stop-color="rgb(73.150635%, 87.710571%, 24.473572%)" offset="0.636719"/><stop stop-opacity="1" stop-color="rgb(73.020935%, 87.661743%, 24.07074%)" offset="0.640625"/><stop stop-opacity="1" stop-color="rgb(72.889709%, 87.612915%, 23.667908%)" offset="0.644531"/><stop stop-opacity="1" stop-color="rgb(72.76001%, 87.564087%, 23.265076%)" offset="0.648438"/><stop stop-opacity="1" stop-color="rgb(72.628784%, 87.513733%, 22.860718%)" offset="0.652344"/><stop stop-opacity="1" stop-color="rgb(72.497559%, 87.464905%, 22.457886%)" offset="0.65625"/><stop stop-opacity="1" stop-color="rgb(72.366333%, 87.416077%, 22.055054%)" offset="0.660156"/><stop stop-opacity="1" stop-color="rgb(72.236633%, 87.367249%, 21.652222%)" offset="0.664062"/><stop stop-opacity="1" stop-color="rgb(72.105408%, 87.316895%, 21.247864%)" offset="0.667969"/><stop stop-opacity="1" stop-color="rgb(71.975708%, 87.268066%, 20.845032%)" offset="0.671875"/><stop stop-opacity="1" stop-color="rgb(71.844482%, 87.219238%, 20.4422%)" offset="0.675781"/><stop stop-opacity="1" stop-color="rgb(71.713257%, 87.17041%, 20.039368%)" offset="0.679688"/><stop stop-opacity="1" stop-color="rgb(71.582031%, 87.120056%, 19.63501%)" offset="0.683594"/><stop stop-opacity="1" stop-color="rgb(71.452332%, 87.071228%, 19.232178%)" offset="0.6875"/><stop stop-opacity="1" stop-color="rgb(71.321106%, 87.0224%, 18.829346%)" offset="0.691406"/><stop stop-opacity="1" stop-color="rgb(71.191406%, 86.973572%, 18.426514%)" offset="0.695312"/><stop stop-opacity="1" stop-color="rgb(71.060181%, 86.923218%, 18.022156%)" offset="0.699219"/><stop stop-opacity="1" stop-color="rgb(70.928955%, 86.87439%, 17.619324%)" offset="0.703125"/><stop stop-opacity="1" stop-color="rgb(70.797729%, 86.825562%, 17.216492%)" offset="0.707031"/><stop stop-opacity="1" stop-color="rgb(70.66803%, 86.776733%, 16.81366%)" offset="0.710938"/><stop stop-opacity="1" stop-color="rgb(70.536804%, 86.727905%, 16.409302%)" offset="0.714844"/><stop stop-opacity="1" stop-color="rgb(70.407104%, 86.679077%, 16.00647%)" offset="0.71875"/><stop stop-opacity="1" stop-color="rgb(70.275879%, 86.628723%, 15.603638%)" offset="0.722656"/><stop stop-opacity="1" stop-color="rgb(70.144653%, 86.579895%, 15.200806%)" offset="0.726562"/><stop stop-opacity="1" stop-color="rgb(70.013428%, 86.531067%, 14.796448%)" offset="0.730469"/><stop stop-opacity="1" stop-color="rgb(69.883728%, 86.482239%, 14.393616%)" offset="0.734375"/><stop stop-opacity="1" stop-color="rgb(69.752502%, 86.431885%, 13.989258%)" offset="0.738281"/><stop stop-opacity="1" stop-color="rgb(69.622803%, 86.383057%, 13.586426%)" offset="0.742188"/><stop stop-opacity="1" stop-color="rgb(69.509888%, 86.340332%, 13.243103%)" offset="0.746094"/><stop stop-opacity="1" stop-color="rgb(69.398499%, 86.299133%, 12.89978%)" offset="0.75"/><stop stop-opacity="1" stop-color="rgb(69.398499%, 86.299133%, 12.89978%)" offset="1"/></linearGradient><clipPath id="feda0616bc"><path d="M 149.226562 113.394531 L 169 113.394531 L 169 183 L 149.226562 183 Z M 149.226562 113.394531 " clip-rule="nonzero"/></clipPath><clipPath id="696a10f782"><path d="M 168 113.394531 L 188 113.394531 L 188 183 L 168 183 Z M 168 113.394531 " clip-rule="nonzero"/></clipPath><clipPath id="171c84aaf3"><path d="M 187 113.394531 L 207 113.394531 L 207 183 L 187 183 Z M 187 113.394531 " clip-rule="nonzero"/></clipPath><clipPath id="37bba2fee2"><path d="M 206 113.394531 L 225.726562 113.394531 L 225.726562 183 L 206 183 Z M 206 113.394531 " clip-rule="nonzero"/></clipPath></defs><g fill="#352359" fill-opacity="1"><g transform="translate(81.398642, 266.152483)"><g><path d="M 35.71875 -27.3125 L 35.546875 -27.3125 L 32.5 -21.234375 L 24.390625 -6.5 L 16.453125 -21.171875 L 13.296875 -27.734375 L 13.125 -27.734375 L 13.125 0 L 4.59375 0 L 4.59375 -41.625 L 14.1875 -41.625 L 24.390625 -22.125 L 24.515625 -22.125 L 34.59375 -41.625 L 44.25 -41.625 L 44.25 0 L 35.71875 0 Z M 35.71875 -27.3125 "/></g></g></g><g fill="#352359" fill-opacity="1"><g transform="translate(130.238044, 266.152483)"><g><path d="M 17.171875 0.71875 C 14.785156 0.71875 12.65625 0.332031 10.78125 -0.4375 C 8.914062 -1.21875 7.335938 -2.3125 6.046875 -3.71875 C 4.753906 -5.132812 3.78125 -6.851562 3.125 -8.875 C 2.46875 -10.90625 2.140625 -13.175781 2.140625 -15.6875 C 2.140625 -18.15625 2.457031 -20.390625 3.09375 -22.390625 C 3.738281 -24.398438 4.6875 -26.117188 5.9375 -27.546875 C 7.1875 -28.984375 8.722656 -30.085938 10.546875 -30.859375 C 12.378906 -31.640625 14.46875 -32.03125 16.8125 -32.03125 C 19.394531 -32.03125 21.609375 -31.59375 23.453125 -30.71875 C 25.304688 -29.84375 26.820312 -28.664062 28 -27.1875 C 29.175781 -25.71875 30.03125 -24.019531 30.5625 -22.09375 C 31.101562 -20.164062 31.375 -18.148438 31.375 -16.046875 L 31.375 -13.421875 L 11.265625 -13.421875 L 11.265625 -12.9375 C 11.265625 -10.875 11.820312 -9.234375 12.9375 -8.015625 C 14.050781 -6.804688 15.800781 -6.203125 18.1875 -6.203125 C 20.019531 -6.203125 21.507812 -6.566406 22.65625 -7.296875 C 23.8125 -8.035156 24.890625 -8.921875 25.890625 -9.953125 L 30.296875 -4.46875 C 28.898438 -2.84375 27.078125 -1.570312 24.828125 -0.65625 C 22.585938 0.257812 20.035156 0.71875 17.171875 0.71875 Z M 17 -25.53125 C 15.207031 -25.53125 13.800781 -24.941406 12.78125 -23.765625 C 11.769531 -22.585938 11.265625 -21.023438 11.265625 -19.078125 L 11.265625 -18.609375 L 22.25 -18.609375 L 22.25 -19.140625 C 22.25 -21.046875 21.820312 -22.585938 20.96875 -23.765625 C 20.113281 -24.941406 18.789062 -25.53125 17 -25.53125 Z M 17 -25.53125 "/></g></g></g><g fill="#352359" fill-opacity="1"><g transform="translate(163.75178, 266.152483)"><g><path d="M 23.3125 -5.25 L 23.015625 -5.25 C 22.773438 -4.414062 22.394531 -3.628906 21.875 -2.890625 C 21.363281 -2.160156 20.738281 -1.523438 20 -0.984375 C 19.269531 -0.441406 18.4375 -0.0234375 17.5 0.265625 C 16.570312 0.566406 15.609375 0.71875 14.609375 0.71875 C 10.628906 0.71875 7.625 -0.679688 5.59375 -3.484375 C 3.570312 -6.285156 2.5625 -10.351562 2.5625 -15.6875 C 2.5625 -21.007812 3.570312 -25.0625 5.59375 -27.84375 C 7.625 -30.632812 10.628906 -32.03125 14.609375 -32.03125 C 16.640625 -32.03125 18.4375 -31.472656 20 -30.359375 C 21.570312 -29.242188 22.578125 -27.8125 23.015625 -26.0625 L 23.3125 -26.0625 L 23.3125 -44.140625 L 32.140625 -44.140625 L 32.140625 0 L 23.3125 0 Z M 17.53125 -6.4375 C 19.207031 -6.4375 20.585938 -6.84375 21.671875 -7.65625 C 22.765625 -8.476562 23.3125 -9.601562 23.3125 -11.03125 L 23.3125 -20.28125 C 23.3125 -21.707031 22.765625 -22.828125 21.671875 -23.640625 C 20.585938 -24.460938 19.207031 -24.875 17.53125 -24.875 C 15.863281 -24.875 14.484375 -24.285156 13.390625 -23.109375 C 12.296875 -21.929688 11.75 -20.351562 11.75 -18.375 L 11.75 -12.9375 C 11.75 -10.945312 12.296875 -9.363281 13.390625 -8.1875 C 14.484375 -7.019531 15.863281 -6.4375 17.53125 -6.4375 Z M 17.53125 -6.4375 "/></g></g></g><g fill="#352359" fill-opacity="1"><g transform="translate(200.008633, 266.152483)"><g><path d="M 8.53125 -34.65625 C 6.738281 -34.65625 5.4375 -35.0625 4.625 -35.875 C 3.8125 -36.6875 3.40625 -37.726562 3.40625 -39 L 3.40625 -40.3125 C 3.40625 -41.582031 3.8125 -42.625 4.625 -43.4375 C 5.4375 -44.257812 6.738281 -44.671875 8.53125 -44.671875 C 10.320312 -44.671875 11.625 -44.257812 12.4375 -43.4375 C 13.25 -42.625 13.65625 -41.582031 13.65625 -40.3125 L 13.65625 -39 C 13.65625 -37.726562 13.25 -36.6875 12.4375 -35.875 C 11.625 -35.0625 10.320312 -34.65625 8.53125 -34.65625 Z M 4.109375 -31.3125 L 12.9375 -31.3125 L 12.9375 0 L 4.109375 0 Z M 4.109375 -31.3125 "/></g></g></g><g fill="#352359" fill-opacity="1"><g transform="translate(217.063662, 266.152483)"><g><path d="M 31.015625 -6.625 L 30.71875 -6.625 C 30.394531 -4.507812 29.316406 -2.753906 27.484375 -1.359375 C 25.660156 0.0234375 23.179688 0.71875 20.046875 0.71875 C 17.648438 0.71875 15.421875 0.257812 13.359375 -0.65625 C 11.296875 -1.570312 9.488281 -2.921875 7.9375 -4.703125 C 6.382812 -6.492188 5.171875 -8.722656 4.296875 -11.390625 C 3.421875 -14.054688 2.984375 -17.140625 2.984375 -20.640625 C 2.984375 -24.140625 3.4375 -27.238281 4.34375 -29.9375 C 5.257812 -32.644531 6.539062 -34.910156 8.1875 -36.734375 C 9.84375 -38.566406 11.820312 -39.957031 14.125 -40.90625 C 16.4375 -41.863281 19.003906 -42.34375 21.828125 -42.34375 C 25.566406 -42.34375 28.785156 -41.535156 31.484375 -39.921875 C 34.191406 -38.316406 36.320312 -35.90625 37.875 -32.6875 L 30.46875 -28.453125 C 29.832031 -30.078125 28.835938 -31.457031 27.484375 -32.59375 C 26.140625 -33.726562 24.253906 -34.296875 21.828125 -34.296875 C 19.003906 -34.296875 16.753906 -33.476562 15.078125 -31.84375 C 13.410156 -30.21875 12.578125 -27.65625 12.578125 -24.15625 L 12.578125 -17.46875 C 12.578125 -14.007812 13.410156 -11.453125 15.078125 -9.796875 C 16.753906 -8.148438 19.003906 -7.328125 21.828125 -7.328125 C 22.941406 -7.328125 23.992188 -7.457031 24.984375 -7.71875 C 25.984375 -7.976562 26.859375 -8.375 27.609375 -8.90625 C 28.367188 -9.445312 28.957031 -10.09375 29.375 -10.84375 C 29.789062 -11.601562 30 -12.5 30 -13.53125 L 30 -15.625 L 22.25 -15.625 L 22.25 -23.203125 L 38.640625 -23.203125 L 38.640625 0 L 31.015625 0 Z M 31.015625 -6.625 "/></g></g></g><g fill="#352359" fill-opacity="1"><g transform="translate(259.939769, 266.152483)"><g><path d="M 16.8125 0.71875 C 14.507812 0.71875 12.453125 0.34375 10.640625 -0.40625 C 8.835938 -1.164062 7.304688 -2.257812 6.046875 -3.6875 C 4.796875 -5.125 3.832031 -6.851562 3.15625 -8.875 C 2.476562 -10.90625 2.140625 -13.175781 2.140625 -15.6875 C 2.140625 -18.1875 2.476562 -20.453125 3.15625 -22.484375 C 3.832031 -24.515625 4.796875 -26.234375 6.046875 -27.640625 C 7.304688 -29.054688 8.835938 -30.140625 10.640625 -30.890625 C 12.453125 -31.648438 14.507812 -32.03125 16.8125 -32.03125 C 19.125 -32.03125 21.179688 -31.648438 22.984375 -30.890625 C 24.796875 -30.140625 26.328125 -29.054688 27.578125 -27.640625 C 28.835938 -26.234375 29.800781 -24.515625 30.46875 -22.484375 C 31.144531 -20.453125 31.484375 -18.1875 31.484375 -15.6875 C 31.484375 -13.175781 31.144531 -10.90625 30.46875 -8.875 C 29.800781 -6.851562 28.835938 -5.125 27.578125 -3.6875 C 26.328125 -2.257812 24.796875 -1.164062 22.984375 -0.40625 C 21.179688 0.34375 19.125 0.71875 16.8125 0.71875 Z M 16.8125 -6.265625 C 18.5625 -6.265625 19.914062 -6.800781 20.875 -7.875 C 21.832031 -8.945312 22.3125 -10.476562 22.3125 -12.46875 L 22.3125 -18.84375 C 22.3125 -20.832031 21.832031 -22.363281 20.875 -23.4375 C 19.914062 -24.507812 18.5625 -25.046875 16.8125 -25.046875 C 15.0625 -25.046875 13.707031 -24.507812 12.75 -23.4375 C 11.800781 -22.363281 11.328125 -20.832031 11.328125 -18.84375 L 11.328125 -12.46875 C 11.328125 -10.476562 11.800781 -8.945312 12.75 -7.875 C 13.707031 -6.800781 15.0625 -6.265625 16.8125 -6.265625 Z M 16.8125 -6.265625 "/></g></g></g><g clip-path="url(#cf4ccf35f9)"><g clip-path="url(#bb63995831)"><path fill="url(#89164f5349)" d="M 128.921875 206.5625 L 245.921875 206.5625 L 245.921875 89.5625 L 128.921875 89.5625 Z M 128.921875 206.5625 " fill-rule="nonzero"/></g></g><g clip-path="url(#feda0616bc)"><path fill="#80b4f6" d="M 149.367188 182.875 L 168.410156 159.691406 L 168.410156 113.394531 L 149.28125 136.683594 Z M 149.367188 182.875 " fill-opacity="1" fill-rule="nonzero"/></g><g clip-path="url(#696a10f782)"><path fill="#c0bff2" d="M 168.410156 113.394531 L 187.492188 136.574219 L 187.492188 182.875 L 168.410156 159.585938 Z M 168.410156 113.394531 " fill-opacity="1" fill-rule="nonzero"/></g><g clip-path="url(#171c84aaf3)"><path fill="#dbd5f4" d="M 187.578125 182.875 L 206.621094 159.691406 L 206.621094 113.394531 L 187.492188 136.683594 Z M 187.578125 182.875 " fill-opacity="1" fill-rule="nonzero"/></g><g clip-path="url(#37bba2fee2)"><path fill="#80b4f6" d="M 206.621094 113.394531 L 225.707031 136.574219 L 225.707031 182.875 L 206.621094 159.585938 Z M 206.621094 113.394531 " fill-opacity="1" fill-rule="nonzero"/></g><g fill="#352359" fill-opacity="1"><g transform="translate(142.974659, 297.836943)"><g><path d="M 1.390625 -10.40625 L 5.671875 -10.40625 C 6.535156 -10.40625 7.210938 -10.160156 7.703125 -9.671875 C 8.191406 -9.179688 8.4375 -8.53125 8.4375 -7.71875 C 8.4375 -7.332031 8.378906 -7.003906 8.265625 -6.734375 C 8.160156 -6.460938 8.023438 -6.238281 7.859375 -6.0625 C 7.691406 -5.894531 7.503906 -5.769531 7.296875 -5.6875 C 7.097656 -5.601562 6.914062 -5.546875 6.75 -5.515625 L 6.75 -5.421875 C 6.9375 -5.410156 7.144531 -5.359375 7.375 -5.265625 C 7.613281 -5.179688 7.835938 -5.039062 8.046875 -4.84375 C 8.253906 -4.65625 8.429688 -4.410156 8.578125 -4.109375 C 8.722656 -3.804688 8.796875 -3.441406 8.796875 -3.015625 C 8.796875 -2.585938 8.726562 -2.1875 8.59375 -1.8125 C 8.457031 -1.445312 8.269531 -1.128906 8.03125 -0.859375 C 7.789062 -0.597656 7.503906 -0.390625 7.171875 -0.234375 C 6.847656 -0.078125 6.492188 0 6.109375 0 L 1.390625 0 Z M 2.640625 -1.109375 L 5.71875 -1.109375 C 6.257812 -1.109375 6.679688 -1.242188 6.984375 -1.515625 C 7.296875 -1.785156 7.453125 -2.1875 7.453125 -2.71875 L 7.453125 -3.21875 C 7.453125 -3.75 7.296875 -4.148438 6.984375 -4.421875 C 6.679688 -4.691406 6.257812 -4.828125 5.71875 -4.828125 L 2.640625 -4.828125 Z M 2.640625 -5.90625 L 5.515625 -5.90625 C 6.015625 -5.90625 6.398438 -6.023438 6.671875 -6.265625 C 6.953125 -6.515625 7.09375 -6.875 7.09375 -7.34375 L 7.09375 -7.859375 C 7.09375 -8.328125 6.953125 -8.679688 6.671875 -8.921875 C 6.398438 -9.171875 6.015625 -9.296875 5.515625 -9.296875 L 2.640625 -9.296875 Z M 2.640625 -5.90625 "/></g></g></g><g fill="#352359" fill-opacity="1"><g transform="translate(153.868681, 297.836943)"><g><path d="M 6.859375 0 C 6.410156 0 6.085938 -0.117188 5.890625 -0.359375 C 5.703125 -0.597656 5.582031 -0.894531 5.53125 -1.25 L 5.453125 -1.25 C 5.285156 -0.769531 5.007812 -0.410156 4.625 -0.171875 C 4.238281 0.0546875 3.773438 0.171875 3.234375 0.171875 C 2.421875 0.171875 1.785156 -0.0351562 1.328125 -0.453125 C 0.878906 -0.867188 0.65625 -1.429688 0.65625 -2.140625 C 0.65625 -2.867188 0.921875 -3.425781 1.453125 -3.8125 C 1.984375 -4.195312 2.8125 -4.390625 3.9375 -4.390625 L 5.453125 -4.390625 L 5.453125 -5.15625 C 5.453125 -5.707031 5.300781 -6.125 5 -6.40625 C 4.707031 -6.695312 4.253906 -6.84375 3.640625 -6.84375 C 3.171875 -6.84375 2.78125 -6.738281 2.46875 -6.53125 C 2.15625 -6.320312 1.894531 -6.039062 1.6875 -5.6875 L 0.96875 -6.359375 C 1.175781 -6.773438 1.507812 -7.128906 1.96875 -7.421875 C 2.425781 -7.722656 3.003906 -7.875 3.703125 -7.875 C 4.628906 -7.875 5.347656 -7.644531 5.859375 -7.1875 C 6.378906 -6.726562 6.640625 -6.09375 6.640625 -5.28125 L 6.640625 -1.046875 L 7.53125 -1.046875 L 7.53125 0 Z M 3.421875 -0.828125 C 3.722656 -0.828125 4 -0.863281 4.25 -0.9375 C 4.5 -1.007812 4.710938 -1.109375 4.890625 -1.234375 C 5.066406 -1.367188 5.203125 -1.519531 5.296875 -1.6875 C 5.398438 -1.851562 5.453125 -2.035156 5.453125 -2.234375 L 5.453125 -3.5 L 3.875 -3.5 C 3.1875 -3.5 2.6875 -3.398438 2.375 -3.203125 C 2.0625 -3.003906 1.90625 -2.71875 1.90625 -2.34375 L 1.90625 -2.03125 C 1.90625 -1.644531 2.039062 -1.347656 2.3125 -1.140625 C 2.59375 -0.929688 2.960938 -0.828125 3.421875 -0.828125 Z M 3.421875 -0.828125 "/></g></g></g><g fill="#352359" fill-opacity="1"><g transform="translate(162.989355, 297.836943)"><g><path d="M 1.265625 0 L 1.265625 -7.6875 L 2.453125 -7.6875 L 2.453125 -6.4375 L 2.515625 -6.4375 C 2.703125 -6.875 2.96875 -7.222656 3.3125 -7.484375 C 3.65625 -7.742188 4.117188 -7.875 4.703125 -7.875 C 5.492188 -7.875 6.117188 -7.613281 6.578125 -7.09375 C 7.046875 -6.582031 7.28125 -5.863281 7.28125 -4.9375 L 7.28125 0 L 6.078125 0 L 6.078125 -4.71875 C 6.078125 -6.101562 5.5 -6.796875 4.34375 -6.796875 C 4.101562 -6.796875 3.867188 -6.765625 3.640625 -6.703125 C 3.421875 -6.648438 3.21875 -6.5625 3.03125 -6.4375 C 2.851562 -6.320312 2.710938 -6.171875 2.609375 -5.984375 C 2.503906 -5.796875 2.453125 -5.582031 2.453125 -5.34375 L 2.453125 0 Z M 1.265625 0 "/></g></g></g><g fill="#352359" fill-opacity="1"><g transform="translate(172.616705, 297.836943)"><g><path d="M 7.75 0.84375 C 7.75 1.644531 7.4375 2.226562 6.8125 2.59375 C 6.195312 2.96875 5.269531 3.15625 4.03125 3.15625 C 2.820312 3.15625 1.953125 2.988281 1.421875 2.65625 C 0.898438 2.332031 0.640625 1.867188 0.640625 1.265625 C 0.640625 0.847656 0.75 0.519531 0.96875 0.28125 C 1.1875 0.0507812 1.484375 -0.113281 1.859375 -0.21875 L 1.859375 -0.390625 C 1.398438 -0.609375 1.171875 -0.960938 1.171875 -1.453125 C 1.171875 -1.847656 1.296875 -2.144531 1.546875 -2.34375 C 1.796875 -2.550781 2.113281 -2.703125 2.5 -2.796875 L 2.5 -2.859375 C 2.039062 -3.078125 1.6875 -3.390625 1.4375 -3.796875 C 1.1875 -4.203125 1.0625 -4.675781 1.0625 -5.21875 C 1.0625 -5.601562 1.128906 -5.957031 1.265625 -6.28125 C 1.398438 -6.613281 1.59375 -6.894531 1.84375 -7.125 C 2.101562 -7.363281 2.410156 -7.546875 2.765625 -7.671875 C 3.117188 -7.804688 3.515625 -7.875 3.953125 -7.875 C 4.492188 -7.875 4.976562 -7.773438 5.40625 -7.578125 L 5.40625 -7.703125 C 5.40625 -8.003906 5.472656 -8.25 5.609375 -8.4375 C 5.753906 -8.632812 5.988281 -8.734375 6.3125 -8.734375 L 7.453125 -8.734375 L 7.453125 -7.6875 L 6 -7.6875 L 6 -7.203125 C 6.269531 -6.960938 6.484375 -6.675781 6.640625 -6.34375 C 6.796875 -6.007812 6.875 -5.632812 6.875 -5.21875 C 6.875 -4.832031 6.800781 -4.472656 6.65625 -4.140625 C 6.519531 -3.816406 6.320312 -3.535156 6.0625 -3.296875 C 5.8125 -3.066406 5.507812 -2.882812 5.15625 -2.75 C 4.800781 -2.625 4.40625 -2.5625 3.96875 -2.5625 C 3.71875 -2.5625 3.46875 -2.585938 3.21875 -2.640625 C 2.957031 -2.566406 2.722656 -2.460938 2.515625 -2.328125 C 2.304688 -2.191406 2.203125 -2.007812 2.203125 -1.78125 C 2.203125 -1.550781 2.3125 -1.394531 2.53125 -1.3125 C 2.75 -1.226562 3.035156 -1.1875 3.390625 -1.1875 L 5.015625 -1.1875 C 5.972656 -1.1875 6.664062 -1.003906 7.09375 -0.640625 C 7.53125 -0.285156 7.75 0.207031 7.75 0.84375 Z M 6.640625 0.9375 C 6.640625 0.632812 6.519531 0.390625 6.28125 0.203125 C 6.050781 0.015625 5.632812 -0.078125 5.03125 -0.078125 L 2.46875 -0.078125 C 2 0.140625 1.765625 0.488281 1.765625 0.96875 C 1.765625 1.300781 1.890625 1.585938 2.140625 1.828125 C 2.390625 2.066406 2.816406 2.1875 3.421875 2.1875 L 4.53125 2.1875 C 5.195312 2.1875 5.710938 2.082031 6.078125 1.875 C 6.453125 1.664062 6.640625 1.351562 6.640625 0.9375 Z M 3.96875 -3.515625 C 4.46875 -3.515625 4.867188 -3.632812 5.171875 -3.875 C 5.472656 -4.125 5.625 -4.503906 5.625 -5.015625 L 5.625 -5.421875 C 5.625 -5.929688 5.472656 -6.304688 5.171875 -6.546875 C 4.867188 -6.796875 4.46875 -6.921875 3.96875 -6.921875 C 3.457031 -6.921875 3.050781 -6.796875 2.75 -6.546875 C 2.457031 -6.304688 2.3125 -5.929688 2.3125 -5.421875 L 2.3125 -5.015625 C 2.3125 -4.503906 2.457031 -4.125 2.75 -3.875 C 3.050781 -3.632812 3.457031 -3.515625 3.96875 -3.515625 Z M 3.96875 -3.515625 "/></g></g></g><g fill="#352359" fill-opacity="1"><g transform="translate(181.647977, 297.836943)"><g><path d="M 2.53125 0 C 2.113281 0 1.796875 -0.113281 1.578125 -0.34375 C 1.367188 -0.582031 1.265625 -0.878906 1.265625 -1.234375 L 1.265625 -11.03125 L 2.453125 -11.03125 L 2.453125 -1.046875 L 3.59375 -1.046875 L 3.59375 0 Z M 2.53125 0 "/></g></g></g><g fill="#352359" fill-opacity="1"><g transform="translate(186.864335, 297.836943)"><g><path d="M 6.859375 0 C 6.410156 0 6.085938 -0.117188 5.890625 -0.359375 C 5.703125 -0.597656 5.582031 -0.894531 5.53125 -1.25 L 5.453125 -1.25 C 5.285156 -0.769531 5.007812 -0.410156 4.625 -0.171875 C 4.238281 0.0546875 3.773438 0.171875 3.234375 0.171875 C 2.421875 0.171875 1.785156 -0.0351562 1.328125 -0.453125 C 0.878906 -0.867188 0.65625 -1.429688 0.65625 -2.140625 C 0.65625 -2.867188 0.921875 -3.425781 1.453125 -3.8125 C 1.984375 -4.195312 2.8125 -4.390625 3.9375 -4.390625 L 5.453125 -4.390625 L 5.453125 -5.15625 C 5.453125 -5.707031 5.300781 -6.125 5 -6.40625 C 4.707031 -6.695312 4.253906 -6.84375 3.640625 -6.84375 C 3.171875 -6.84375 2.78125 -6.738281 2.46875 -6.53125 C 2.15625 -6.320312 1.894531 -6.039062 1.6875 -5.6875 L 0.96875 -6.359375 C 1.175781 -6.773438 1.507812 -7.128906 1.96875 -7.421875 C 2.425781 -7.722656 3.003906 -7.875 3.703125 -7.875 C 4.628906 -7.875 5.347656 -7.644531 5.859375 -7.1875 C 6.378906 -6.726562 6.640625 -6.09375 6.640625 -5.28125 L 6.640625 -1.046875 L 7.53125 -1.046875 L 7.53125 0 Z M 3.421875 -0.828125 C 3.722656 -0.828125 4 -0.863281 4.25 -0.9375 C 4.5 -1.007812 4.710938 -1.109375 4.890625 -1.234375 C 5.066406 -1.367188 5.203125 -1.519531 5.296875 -1.6875 C 5.398438 -1.851562 5.453125 -2.035156 5.453125 -2.234375 L 5.453125 -3.5 L 3.875 -3.5 C 3.1875 -3.5 2.6875 -3.398438 2.375 -3.203125 C 2.0625 -3.003906 1.90625 -2.71875 1.90625 -2.34375 L 1.90625 -2.03125 C 1.90625 -1.644531 2.039062 -1.347656 2.3125 -1.140625 C 2.59375 -0.929688 2.960938 -0.828125 3.421875 -0.828125 Z M 3.421875 -0.828125 "/></g></g></g><g fill="#352359" fill-opacity="1"><g transform="translate(195.98501, 297.836943)"><g><path d="M 6.1875 -1.25 L 6.125 -1.25 C 5.65625 -0.300781 4.90625 0.171875 3.875 0.171875 C 3.394531 0.171875 2.960938 0.078125 2.578125 -0.109375 C 2.191406 -0.296875 1.859375 -0.5625 1.578125 -0.90625 C 1.304688 -1.257812 1.097656 -1.679688 0.953125 -2.171875 C 0.816406 -2.671875 0.75 -3.226562 0.75 -3.84375 C 0.75 -4.457031 0.816406 -5.015625 0.953125 -5.515625 C 1.097656 -6.015625 1.304688 -6.4375 1.578125 -6.78125 C 1.859375 -7.125 2.191406 -7.390625 2.578125 -7.578125 C 2.960938 -7.773438 3.394531 -7.875 3.875 -7.875 C 4.414062 -7.875 4.875 -7.753906 5.25 -7.515625 C 5.632812 -7.285156 5.925781 -6.925781 6.125 -6.4375 L 6.1875 -6.4375 L 6.1875 -11.03125 L 7.375 -11.03125 L 7.375 0 L 6.1875 0 Z M 4.203125 -0.890625 C 4.472656 -0.890625 4.726562 -0.925781 4.96875 -1 C 5.21875 -1.070312 5.429688 -1.171875 5.609375 -1.296875 C 5.785156 -1.429688 5.925781 -1.597656 6.03125 -1.796875 C 6.132812 -1.992188 6.1875 -2.210938 6.1875 -2.453125 L 6.1875 -5.328125 C 6.1875 -5.535156 6.132812 -5.726562 6.03125 -5.90625 C 5.925781 -6.09375 5.785156 -6.25 5.609375 -6.375 C 5.429688 -6.507812 5.21875 -6.613281 4.96875 -6.6875 C 4.726562 -6.757812 4.472656 -6.796875 4.203125 -6.796875 C 3.523438 -6.796875 2.992188 -6.582031 2.609375 -6.15625 C 2.222656 -5.738281 2.03125 -5.1875 2.03125 -4.5 L 2.03125 -3.1875 C 2.03125 -2.5 2.222656 -1.941406 2.609375 -1.515625 C 2.992188 -1.097656 3.523438 -0.890625 4.203125 -0.890625 Z M 4.203125 -0.890625 "/></g></g></g><g fill="#352359" fill-opacity="1"><g transform="translate(205.791185, 297.836943)"><g><path d="M 4.15625 0.171875 C 3.632812 0.171875 3.160156 0.078125 2.734375 -0.109375 C 2.316406 -0.296875 1.953125 -0.566406 1.640625 -0.921875 C 1.335938 -1.273438 1.101562 -1.695312 0.9375 -2.1875 C 0.78125 -2.675781 0.703125 -3.226562 0.703125 -3.84375 C 0.703125 -4.445312 0.78125 -5 0.9375 -5.5 C 1.101562 -6 1.335938 -6.421875 1.640625 -6.765625 C 1.953125 -7.117188 2.316406 -7.390625 2.734375 -7.578125 C 3.160156 -7.773438 3.632812 -7.875 4.15625 -7.875 C 4.675781 -7.875 5.140625 -7.773438 5.546875 -7.578125 C 5.953125 -7.390625 6.296875 -7.128906 6.578125 -6.796875 C 6.867188 -6.472656 7.09375 -6.082031 7.25 -5.625 C 7.40625 -5.164062 7.484375 -4.660156 7.484375 -4.109375 L 7.484375 -3.546875 L 1.953125 -3.546875 L 1.953125 -3.1875 C 1.953125 -2.863281 2.003906 -2.554688 2.109375 -2.265625 C 2.210938 -1.984375 2.359375 -1.738281 2.546875 -1.53125 C 2.742188 -1.320312 2.984375 -1.15625 3.265625 -1.03125 C 3.554688 -0.914062 3.878906 -0.859375 4.234375 -0.859375 C 4.722656 -0.859375 5.144531 -0.972656 5.5 -1.203125 C 5.863281 -1.429688 6.144531 -1.757812 6.34375 -2.1875 L 7.203125 -1.578125 C 6.953125 -1.054688 6.5625 -0.632812 6.03125 -0.3125 C 5.507812 0.0078125 4.882812 0.171875 4.15625 0.171875 Z M 4.15625 -6.875 C 3.832031 -6.875 3.535156 -6.816406 3.265625 -6.703125 C 2.992188 -6.585938 2.757812 -6.425781 2.5625 -6.21875 C 2.375 -6.007812 2.222656 -5.757812 2.109375 -5.46875 C 2.003906 -5.1875 1.953125 -4.878906 1.953125 -4.546875 L 1.953125 -4.4375 L 6.203125 -4.4375 L 6.203125 -4.609375 C 6.203125 -5.296875 6.015625 -5.84375 5.640625 -6.25 C 5.265625 -6.664062 4.769531 -6.875 4.15625 -6.875 Z M 4.15625 -6.875 "/></g></g></g><g fill="#352359" fill-opacity="1"><g transform="translate(215.135389, 297.836943)"><g><path d="M 3.578125 0.171875 C 2.859375 0.171875 2.257812 0.0351562 1.78125 -0.234375 C 1.300781 -0.503906 0.882812 -0.867188 0.53125 -1.328125 L 1.390625 -2.015625 C 1.679688 -1.640625 2.007812 -1.347656 2.375 -1.140625 C 2.75 -0.929688 3.179688 -0.828125 3.671875 -0.828125 C 4.171875 -0.828125 4.5625 -0.9375 4.84375 -1.15625 C 5.132812 -1.375 5.28125 -1.6875 5.28125 -2.09375 C 5.28125 -2.382812 5.179688 -2.632812 4.984375 -2.84375 C 4.796875 -3.0625 4.445312 -3.210938 3.9375 -3.296875 L 3.328125 -3.390625 C 2.960938 -3.429688 2.628906 -3.503906 2.328125 -3.609375 C 2.035156 -3.710938 1.773438 -3.851562 1.546875 -4.03125 C 1.328125 -4.207031 1.15625 -4.421875 1.03125 -4.671875 C 0.90625 -4.929688 0.84375 -5.242188 0.84375 -5.609375 C 0.84375 -5.984375 0.910156 -6.3125 1.046875 -6.59375 C 1.191406 -6.875 1.382812 -7.109375 1.625 -7.296875 C 1.875 -7.492188 2.164062 -7.640625 2.5 -7.734375 C 2.84375 -7.828125 3.207031 -7.875 3.59375 -7.875 C 4.21875 -7.875 4.738281 -7.765625 5.15625 -7.546875 C 5.582031 -7.328125 5.957031 -7.023438 6.28125 -6.640625 L 5.484375 -5.921875 C 5.316406 -6.160156 5.066406 -6.375 4.734375 -6.5625 C 4.410156 -6.757812 4 -6.859375 3.5 -6.859375 C 3 -6.859375 2.625 -6.75 2.375 -6.53125 C 2.125 -6.320312 2 -6.035156 2 -5.671875 C 2 -5.285156 2.125 -5.007812 2.375 -4.84375 C 2.625 -4.675781 2.988281 -4.550781 3.46875 -4.46875 L 4.0625 -4.375 C 4.914062 -4.25 5.519531 -4.003906 5.875 -3.640625 C 6.238281 -3.273438 6.421875 -2.800781 6.421875 -2.21875 C 6.421875 -1.476562 6.164062 -0.894531 5.65625 -0.46875 C 5.15625 -0.0390625 4.460938 0.171875 3.578125 0.171875 Z M 3.578125 0.171875 "/></g></g></g><g fill="#352359" fill-opacity="1"><g transform="translate(223.555677, 297.836943)"><g><path d="M 1.265625 -11.03125 L 2.453125 -11.03125 L 2.453125 -6.4375 L 2.515625 -6.4375 C 2.703125 -6.875 2.96875 -7.222656 3.3125 -7.484375 C 3.65625 -7.742188 4.117188 -7.875 4.703125 -7.875 C 5.492188 -7.875 6.117188 -7.613281 6.578125 -7.09375 C 7.046875 -6.582031 7.28125 -5.863281 7.28125 -4.9375 L 7.28125 0 L 6.078125 0 L 6.078125 -4.71875 C 6.078125 -6.101562 5.5 -6.796875 4.34375 -6.796875 C 4.101562 -6.796875 3.867188 -6.765625 3.640625 -6.703125 C 3.421875 -6.648438 3.21875 -6.5625 3.03125 -6.4375 C 2.851562 -6.320312 2.710938 -6.171875 2.609375 -5.984375 C 2.503906 -5.796875 2.453125 -5.582031 2.453125 -5.34375 L 2.453125 0 L 1.265625 0 Z M 1.265625 -11.03125 "/></g></g></g></svg>